<svg xmlns="http://www.w3.org/2000/svg" fill="none" viewBox="0 0 513 437"><path fill="#7D5046" d="M317.009 70.182C308.169 36.953 278.987 14.698 257.234 2.27201C248.461 -2.73899 237.654 4.32101 238.822 14.356C240.59 29.541 237.348 47.971 215.398 57.352L177.981 74.278C152.656 84.64 140.524 113.574 150.886 138.895C154.085 146.721 160.478 154.951 166.567 159.982L319.933 98.051C320.83 90.128 319.197 78.406 317.009 70.182Z"/><path fill="#7D5046" d="M385.306 131.942C373.118 102.135 339.08 87.865 309.266 100.057L113.387 180.63C83.5867 192.822 69.3097 226.863 81.5017 256.67 90.7367 279.246 112.512 292.911 135.486 292.911 142.838 292.911 150.315 291.509 157.542 288.555L353.421 207.983C383.221 195.79 397.498 161.748 385.306 131.942zM66.7026 436.094H446.55C483.034 436.094 512.61 406.518 512.61 370.034 512.61 333.55 483.034 303.974 446.55 303.974H66.7026V436.094z"/><path fill="#7D5046" d="M461 209.012C447.19 175.24 408.624 159.072 374.844 172.885L41.6716 308.877C7.90755 322.691 -8.26844 361.261 5.54456 395.033C16.0076 420.612 40.6796 436.095 66.7096 436.095C75.0396 436.095 83.5106 434.506 91.6996 431.16L424.873 295.169C458.638 281.354 474.814 242.784 461 209.012Z"/><path fill="#fff" d="M159.021 319.862C150.819 317.82 145.459 328.044 151.511 333.944 179.862 361.586 216.421 378.291 256.444 378.291 296.467 378.291 333.026 361.585 361.377 333.943 367.429 328.043 362.069 317.819 353.867 319.861 323.526 327.414 290.738 331.585 256.444 331.585 222.15 331.585 189.362 327.415 159.021 319.862zM343.331 287.459C327.369 287.459 314.43 274.519 314.43 258.558V242.043C314.43 226.081 327.37 213.142 343.331 213.142 359.293 213.142 372.232 226.082 372.232 242.043V258.557C372.232 274.519 359.292 287.459 343.331 287.459zM186.438 287.459C170.476 287.459 157.537 274.519 157.537 258.558V242.043C157.537 226.081 170.477 213.142 186.438 213.142 202.4 213.142 215.339 226.082 215.339 242.043V258.557C215.339 274.519 202.399 287.459 186.438 287.459z"/><path fill="#5A4650" d="M343.331 264.751C337.63 264.751 333.009 260.13 333.009 254.429V246.171C333.009 240.47 337.63 235.849 343.331 235.849 349.032 235.849 353.653 240.47 353.653 246.171V254.429C353.653 260.13 349.032 264.751 343.331 264.751zM186.437 264.751C180.736 264.751 176.115 260.13 176.115 254.429V246.171C176.115 240.47 180.736 235.849 186.437 235.849 192.138 235.849 196.759 240.47 196.759 246.171V254.429C196.758 260.13 192.138 264.751 186.437 264.751z"/></svg>